#!OML:ASF X:\für Bonn\!DataBase\2005_08_10_Bjorn_Final\c3d\bjorn.ASF
:FULLY-SPECIFIED
:DEGREES
81
root 0.500259 9.13121 3.61985 -186.947 -2.02728 176.513
lowerback 28.4724 2.12061 1.74802
upperback 13.4632 -0.651876 -0.585683
thorax -0.58697 -1.78682 -1.44171
lowerneck -17.1818 0.734828 3.00886
upperneck -7.59666 -0.92477 -1.86807
head 0.431408 -1.15326 -1.15775
rclavicle -1.05356e-014 9.14409e-015
rhumerus 80.9609 -0.759341 -79.4529
rradius 5.69466
rwrist 48.2812
rhand -15.1877 8.72541
rfingers 7.12502
rthumb 10.9837 -20.9673
lclavicle -1.05356e-014 9.14409e-015
lhumerus 85.0424 -4.63841 81.9296
lradius 5.6227
lwrist -62.8524
lhand -14.3475 -3.07908
lfingers 7.12502
lthumb 11.7941 26.5688
rfemur -54.7704 -72.9637 -22.5794
rtibia 146.271
rfoot -51.7575 56.1973
rtoes -22.5994
lfemur -70.3863 55.1814 -9.33991
ltibia 147.254
lfoot -36.5663 -34.5246
ltoes -23.683
82
root 0.495017 9.07135 3.61219 -187.048 -1.99603 176.58
lowerback 28.5702 2.08142 1.89288
upperback 13.4775 -0.680056 -0.545656
thorax -0.61226 -1.80231 -1.47187
lowerneck -17.5408 0.795713 3.06721
upperneck -7.57149 -0.898478 -2.02807
head 0.499372 -1.15967 -1.22289
rclavicle 3.18055e-015 -1.23246e-014
rhumerus 80.782 -0.638386 -79.3351
rradius 5.74667
rwrist 48.427
rhand -15.1271 8.64027
rfingers 7.12502
rthumb 11.0421 -21.0493
lclavicle 3.18055e-015 -1.23246e-014
lhumerus 84.8078 -4.65231 81.9532
lradius 5.74818
lwrist -62.3406
lhand -14.5753 -2.85567
lfingers 7.12502
lthumb 11.5743 26.8047
rfemur -51.0679 -74.5394 -26.945
rtibia 146.706
rfoot -53.4722 56.7557
rtoes -22.8145
lfemur -69.8251 57.2571 -8.301
ltibia 147.742
lfoot -36.944 -35.3016
ltoes -23.0115
83
root 0.489915 9.02043 3.60773 -187.094 -1.95213 176.671
lowerback 28.6522 2.0343 2.02838
upperback 13.48 -0.714715 -0.479331
thorax -0.64411 -1.82058 -1.4659
lowerneck -18.1168 0.873321 3.12973
upperneck -7.37799 -0.853565 -2.27441
head 0.659909 -1.15794 -1.32092
rclavicle -9.14409e-015 -1.53064e-014
rhumerus 80.7003 -0.467411 -79.1914
rradius 5.94296
rwrist 48.9526
rhand -14.5453 8.45565
rfingers 7.12502
rthumb 11.6032 -21.2031
lclavicle -9.14409e-015 -1.53064e-014
lhumerus 84.5768 -4.61426 82.0006
lradius 5.87633
lwrist -61.6988
lhand -14.6695 -2.59921
lfingers 7.12502
lthumb 11.4835 27.0663
rfemur -47.8543 -75.7435 -30.7204
rtibia 147.082
rfoot -54.6685 57.2983
rtoes -22.7681
lfemur -69.4272 59.1041 -7.4131
ltibia 148.177
lfoot -37.3848 -35.7804
ltoes -22.7956
84
root 0.485793 8.98358 3.60612 -187.117 -1.93144 176.747
lowerback 28.7156 1.9882 2.16555
upperback 13.4855 -0.746595 -0.43363
thorax -0.66423 -1.83562 -1.48458
lowerneck -18.8364 0.948945 3.30367
upperneck -7.04196 -0.828087 -2.59939
head 0.893611 -1.16797 -1.47042
rclavicle -1.98785e-016 -7.15625e-015
rhumerus 80.6653 -0.334377 -79.0721
rradius 6.17941
rwrist 49.4297
rhand -13.8785 8.26986
rfingers 7.12502
rthumb 12.2462 -21.3516
lclavicle -1.98785e-016 -7.15625e-015
lhumerus 84.3952 -4.61228 82.0212
lradius 5.91744
lwrist -61.0366
lhand -15.3702 -2.30669
lfingers 7.12502
lthumb 10.8077 27.3952
rfemur -45.0286 -76.6362 -33.9722
rtibia 147.364
rfoot -55.6276 57.6645
rtoes -22.7714
lfemur -69.0968 60.5702 -6.7069
ltibia 148.506
lfoot -37.7466 -36.1302
ltoes -22.7009
85
root 0.481303 8.96185 3.60625 -187.132 -1.88444 176.841
lowerback 28.7025 1.95224 2.2903
upperback 13.5143 -0.7727 -0.369929
thorax -0.62301 -1.8497 -1.48027
lowerneck -19.6081 1.05043 3.60713
upperneck -6.602 -0.785559 -3.1134
head 1.17638 -1.17474 -1.70938
rclavicle -1.80894e-014 -1.19271e-015
rhumerus 80.7082 -0.156217 -78.9426
rradius 6.37825
rwrist 49.9085
rhand -13.4051 8.10912
rfingers 7.12502
rthumb 12.7026 -21.4845
lclavicle -1.80894e-014 -1.19271e-015
lhumerus 84.2848 -4.5956 82.0532
lradius 5.84866
lwrist -60.3185
lhand -15.9142 -1.96127
lfingers 7.12502
lthumb 10.2829 27.7674
rfemur -43.8135 -77.0406 -35.4029
rtibia 147.527
rfoot -56.0848 57.8769
rtoes -22.8918
lfemur -68.8147 61.654 -6.13644
ltibia 148.714
lfoot -37.9008 -36.4225
ltoes -22.3548
86
root 0.476675 8.9557 3.60753 -187.227 -1.8479 176.938
lowerback 28.758 1.91352 2.43994
upperback 13.5628 -0.809862 -0.317299
thorax -0.590078 -1.87337 -1.49861
lowerneck -20.3905 1.1594 3.93569
upperneck -6.16063 -0.739988 -3.64737
head 1.4663 -1.18401 -1.96415
rclavicle 7.15625e-015 -2.78299e-015
rhumerus 80.7665 0.0103371 -78.8323
rradius 6.54757
rwrist 50.4643
rhand -13.2192 7.97889
rfingers 7.12502
rthumb 12.8819 -21.6036
lclavicle 7.15625e-015 -2.78299e-015
lhumerus 84.3147 -4.56365 82.0569
lradius 5.63102
lwrist -60.1746
lhand -16.1016 -1.6796
lfingers 7.12502
lthumb 10.1022 28.0579
rfemur -42.7285 -77.2 -36.5392
rtibia 147.56
rfoot -56.2098 58.2065
rtoes -22.6393
lfemur -68.377 62.2991 -5.56945
ltibia 148.796
lfoot -38.1033 -36.5402
ltoes -22.2805
87
root 0.472139 8.96715 3.60882 -187.291 -1.79809 177.012
lowerback 28.83 1.88345 2.54936
upperback 13.5863 -0.837354 -0.256545
thorax -0.593434 -1.89202 -1.48648
lowerneck -21.0469 1.26273 4.08059
upperneck -5.90337 -0.678144 -3.97425
head 1.67312 -1.18347 -2.11265
rclavicle -3.37934e-015 -2.78299e-015
rhumerus 80.8802 0.18046 -78.6941
rradius 6.54164
rwrist 51.0815
rhand -13.4095 7.86692
rfingers 7.12502
rthumb 12.6984 -21.727
lclavicle -3.37934e-015 -2.78299e-015
lhumerus 84.4205 -4.50663 82.0792
lradius 5.32531
lwrist -60.4375
lhand -16.022 -1.44641
lfingers 7.12502
lthumb 10.1789 28.2873
rfemur -43.0794 -77.0646 -36.0718
rtibia 147.464
rfoot -56.0776 58.3322
rtoes -22.5631
lfemur -68.1325 62.3788 -5.37461
ltibia 148.75
lfoot -38.1812 -36.3987
ltoes -22.3283
88
root 0.468251 8.99726 3.61066 -187.262 -1.74751 177.121
lowerback 28.8505 1.84043 2.68039
upperback 13.5847 -0.86153 -0.187568
thorax -0.601754 -1.90239 -1.47876
lowerneck -21.656 1.36916 4.13421
upperneck -5.74613 -0.603736 -4.18652
head 1.83794 -1.17673 -2.20312
rclavicle -7.95139e-016 -7.95139e-016
rhumerus 81.1333 0.344919 -78.5471
rradius 6.37697
rwrist 51.0787
rhand -13.4212 7.91978
rfingers 7.12502
rthumb 12.6872 -21.6748
lclavicle -7.95139e-016 -7.95139e-016
lhumerus 84.5632 -4.43953 82.1006
lradius 5.04834
lwrist -60.4912
lhand -15.6996 -1.59153
lfingers 7.12502
lthumb 10.49 28.1267
rfemur -45.3424 -76.5236 -33.4266
rtibia 147.234
rfoot -55.3049 58.3786
rtoes -22.3239
lfemur -68.3549 61.801 -5.71803
ltibia 148.569
lfoot -38.0685 -36.0271
ltoes -22.595
